<svg width="85" height="32" viewBox="0 0 85 32" fill="none" xmlns="http://www.w3.org/2000/svg">
<path d="M4.824 24.832C3.39467 24.832 2.38133 24.4267 1.784 23.616C1.208 22.784 0.92 21.536 0.92 19.872C0.92 18.8053 1.09067 17.2053 1.432 15.072C1.79467 12.9173 2.296 10.0693 2.936 6.528L1.24 3.104C2.24267 2.464 3.30933 1.92 4.44 1.472C5.57067 1.00267 6.70133 0.768 7.832 0.768C8.83467 0.768 9.496 1.06667 9.816 1.664C10.136 2.26133 10.296 2.96533 10.296 3.776C10.296 4.11733 10.232 4.672 10.104 5.44C9.99733 6.18667 9.848 7.072 9.656 8.096C9.464 9.09867 9.26133 10.1547 9.048 11.264C8.856 12.3733 8.664 13.472 8.472 14.56C8.28 15.6267 8.12 16.608 7.992 17.504C7.88533 18.3787 7.832 19.0933 7.832 19.648H11.288C12.9093 19.4133 14.5413 18.9973 16.184 18.4C16.2693 18.6347 16.3227 18.88 16.344 19.136C16.3653 19.392 16.376 19.6693 16.376 19.968C16.376 20.7147 16.2267 21.4613 15.928 22.208C15.6293 22.9547 15.1707 23.5733 14.552 24.064C13.9333 24.5547 13.1547 24.8 12.216 24.8C11.2987 24.8 10.4987 24.7147 9.816 24.544C9.13333 24.3947 8.41867 24.2453 7.672 24.096C7.20267 24.352 6.73333 24.5333 6.264 24.64C5.79467 24.768 5.31467 24.832 4.824 24.832ZM27.0585 24.8C25.1812 24.8 23.5598 24.448 22.1945 23.744C20.8505 23.0187 19.8158 22.0267 19.0905 20.768C18.3652 19.5093 18.0025 18.048 18.0025 16.384C18.0025 14.08 18.5038 12.064 19.5065 10.336C20.5305 8.58667 21.9278 7.232 23.6985 6.272C25.4692 5.29067 27.4852 4.8 29.7465 4.8C30.1092 4.8 30.4718 4.82133 30.8345 4.864C31.2185 4.88533 31.6238 4.94933 32.0505 5.056C32.1572 5.35467 32.2425 5.71733 32.3065 6.144C32.3705 6.54933 32.4132 6.98667 32.4345 7.456C32.6265 7.392 32.8292 7.33867 33.0425 7.296C33.2772 7.25333 33.5225 7.232 33.7785 7.232C34.5252 7.232 35.2292 7.43467 35.8905 7.84C36.5518 8.224 37.0958 8.832 37.5225 9.664C37.9492 10.496 38.1625 11.552 38.1625 12.832C38.1625 14.7307 37.8425 16.4267 37.2025 17.92C36.5838 19.392 35.7412 20.64 34.6745 21.664C33.6078 22.688 32.4132 23.4667 31.0905 24C29.7892 24.5333 28.4452 24.8 27.0585 24.8ZM28.0505 20.864C28.5412 20.864 29.0532 20.7467 29.5865 20.512C30.1198 20.2773 30.6425 19.8507 31.1545 19.232C31.6665 18.6133 32.0932 17.7387 32.4345 16.608C31.5172 16.032 30.8558 15.328 30.4505 14.496C30.0452 13.6427 29.8425 12.704 29.8425 11.68C29.8425 11.3813 29.8958 10.9973 30.0025 10.528C30.1092 10.0587 30.2905 9.57867 30.5465 9.088C30.8238 8.59733 31.1972 8.192 31.6665 7.872C30.1945 8.17067 28.9892 8.61867 28.0505 9.216C27.1118 9.81333 26.3758 10.5067 25.8425 11.296C25.3305 12.064 24.9678 12.864 24.7545 13.696C24.5625 14.5067 24.4665 15.2853 24.4665 16.032C24.4665 16.8853 24.6052 17.6853 24.8825 18.432C25.1598 19.1573 25.5652 19.744 26.0985 20.192C26.6318 20.64 27.2825 20.864 28.0505 20.864ZM46.7975 31.52C45.8162 31.52 44.9202 31.3813 44.1095 31.104C43.2988 30.8267 42.6482 30.4213 42.1575 29.888C41.6882 29.3547 41.4535 28.7147 41.4535 27.968C41.4535 27.4987 41.5495 26.9867 41.7415 26.432C41.9548 25.8773 42.2962 25.2907 42.7655 24.672C43.2562 25.376 43.8535 25.9093 44.5575 26.272C45.2828 26.656 46.1575 26.848 47.1815 26.848C47.9495 26.848 48.7282 26.624 49.5175 26.176C50.3068 25.728 51.0108 25.024 51.6295 24.064C52.2482 23.1253 52.6855 21.8987 52.9415 20.384L52.6215 20.224C51.8322 21.3973 50.9148 22.2507 49.8695 22.784C48.8242 23.296 47.8002 23.552 46.7975 23.552C45.6028 23.552 44.5682 23.232 43.6935 22.592C42.8402 21.952 42.1788 21.0667 41.7095 19.936C41.2615 18.784 41.0375 17.4507 41.0375 15.936C41.0375 14.6773 41.2722 13.3973 41.7415 12.096C42.2108 10.7733 42.9362 9.568 43.9175 8.48C44.8988 7.37067 46.1468 6.48533 47.6615 5.824C49.1975 5.14133 51.0322 4.8 53.1655 4.8C53.5922 4.8 53.9975 4.82133 54.3815 4.864C54.7868 4.88533 55.2242 4.94933 55.6935 5.056C55.7362 5.26933 55.7788 5.51467 55.8215 5.792C55.8642 6.048 55.8962 6.32533 55.9175 6.624C56.4295 6.26133 56.9415 6.00533 57.4535 5.856C57.9868 5.68533 58.4882 5.6 58.9575 5.6C59.7468 5.6 60.3122 5.80267 60.6535 6.208C60.9948 6.592 61.1655 7.18933 61.1655 8C61.1655 9.32267 61.0695 10.816 60.8775 12.48C60.6855 14.144 60.3762 15.8613 59.9495 17.632C59.5228 19.4027 58.9468 21.1093 58.2215 22.752C57.5175 24.3947 56.6322 25.8773 55.5655 27.2C54.5202 28.5227 53.2722 29.568 51.8215 30.336C50.3708 31.1253 48.6962 31.52 46.7975 31.52ZM50.2535 18.688C50.7868 18.688 51.3415 18.5493 51.9175 18.272C52.4935 17.9947 53.0268 17.5573 53.5175 16.96C53.7735 15.5733 54.0188 14.0907 54.2535 12.512C54.4882 10.9333 54.7122 9.41867 54.9255 7.968C53.2828 7.968 51.8748 8.29867 50.7015 8.96C49.5282 9.62133 48.6322 10.496 48.0135 11.584C47.3948 12.6507 47.0855 13.8027 47.0855 15.04C47.0855 16.1493 47.3948 17.0347 48.0135 17.696C48.6535 18.3573 49.4002 18.688 50.2535 18.688ZM73.246 24.8C71.3687 24.8 69.7473 24.448 68.382 23.744C67.038 23.0187 66.0033 22.0267 65.278 20.768C64.5527 19.5093 64.19 18.048 64.19 16.384C64.19 14.08 64.6913 12.064 65.694 10.336C66.718 8.58667 68.1153 7.232 69.886 6.272C71.6567 5.29067 73.6727 4.8 75.934 4.8C76.2967 4.8 76.6593 4.82133 77.022 4.864C77.406 4.88533 77.8113 4.94933 78.238 5.056C78.3447 5.35467 78.43 5.71733 78.494 6.144C78.558 6.54933 78.6007 6.98667 78.622 7.456C78.814 7.392 79.0167 7.33867 79.23 7.296C79.4647 7.25333 79.71 7.232 79.966 7.232C80.7127 7.232 81.4167 7.43467 82.078 7.84C82.7393 8.224 83.2833 8.832 83.71 9.664C84.1367 10.496 84.35 11.552 84.35 12.832C84.35 14.7307 84.03 16.4267 83.39 17.92C82.7713 19.392 81.9287 20.64 80.862 21.664C79.7953 22.688 78.6007 23.4667 77.278 24C75.9767 24.5333 74.6327 24.8 73.246 24.8ZM74.238 20.864C74.7287 20.864 75.2407 20.7467 75.774 20.512C76.3073 20.2773 76.83 19.8507 77.342 19.232C77.854 18.6133 78.2807 17.7387 78.622 16.608C77.7047 16.032 77.0433 15.328 76.638 14.496C76.2327 13.6427 76.03 12.704 76.03 11.68C76.03 11.3813 76.0833 10.9973 76.19 10.528C76.2967 10.0587 76.478 9.57867 76.734 9.088C77.0113 8.59733 77.3847 8.192 77.854 7.872C76.382 8.17067 75.1767 8.61867 74.238 9.216C73.2993 9.81333 72.5633 10.5067 72.03 11.296C71.518 12.064 71.1553 12.864 70.942 13.696C70.75 14.5067 70.654 15.2853 70.654 16.032C70.654 16.8853 70.7927 17.6853 71.07 18.432C71.3473 19.1573 71.7527 19.744 72.286 20.192C72.8193 20.64 73.47 20.864 74.238 20.864Z" fill="#2A4459"/>
</svg>
