<svg width="20" height="20" viewBox="0 0 20 20" fill="none" xmlns="http://www.w3.org/2000/svg">
<path d="M7.17578 3.17188C7.02734 3.43164 6.76758 3.54297 6.4707 3.46875C5.54297 3.17188 4.4668 3.39453 3.72461 4.13672C2.98242 4.87891 2.75977 5.95508 3.05664 6.88281C3.13086 7.17969 3.01953 7.43945 2.75977 7.58789C1.86914 8.0332 1.3125 8.96094 1.3125 10C1.3125 11.0762 1.86914 11.9668 2.75977 12.4492C3.01953 12.5977 3.13086 12.8574 3.05664 13.1543C2.75977 14.082 2.98242 15.1582 3.72461 15.9004C4.4668 16.6426 5.54297 16.8652 6.4707 16.5684C6.76758 16.4941 7.06445 16.6055 7.17578 16.8652C7.6582 17.7559 8.54883 18.3125 9.625 18.3125C10.6641 18.3125 11.5918 17.7559 12.0371 16.8652C12.1855 16.6055 12.4824 16.4941 12.7422 16.5684C13.6699 16.8652 14.7461 16.6426 15.4883 15.9004C16.2305 15.1582 16.4531 14.082 16.1562 13.1543C16.082 12.8574 16.1934 12.5605 16.4531 12.4492C17.3438 11.9668 17.9375 11.0762 17.9375 10C17.9375 8.96094 17.3438 8.0332 16.4531 7.58789C16.1934 7.43945 16.082 7.14258 16.1562 6.88281C16.4531 5.95508 16.2305 4.87891 15.4883 4.13672C14.7461 3.39453 13.6699 3.17188 12.7422 3.46875C12.4453 3.54297 12.1855 3.43164 12.0371 3.17188C11.5918 2.28125 10.6641 1.6875 9.625 1.6875C8.54883 1.6875 7.6582 2.28125 7.17578 3.17188ZM9.625 0.5C10.9609 0.5 12.1484 1.20508 12.8535 2.20703C14.0781 1.98438 15.377 2.35547 16.3418 3.2832C17.2695 4.24805 17.6406 5.54688 17.418 6.77148C18.4199 7.47656 19.125 8.66406 19.125 10C19.125 11.373 18.4199 12.5234 17.418 13.2656C17.6406 14.4902 17.2695 15.7891 16.3418 16.7168C15.377 17.6816 14.0781 18.0527 12.8535 17.8301C12.1484 18.832 10.9609 19.5 9.625 19.5C8.25195 19.5 7.10156 18.832 6.35938 17.8301C5.13477 18.0527 3.83594 17.6816 2.9082 16.7168C1.94336 15.7891 1.57227 14.4902 1.79492 13.2656C0.792969 12.5234 0.125 11.373 0.125 10C0.125 8.66406 0.792969 7.47656 1.79492 6.77148C1.57227 5.54688 1.94336 4.24805 2.9082 3.2832C3.83594 2.35547 5.13477 1.98438 6.35938 2.20703C7.10156 1.20508 8.25195 0.5 9.625 0.5ZM13.002 6.62305C13.2246 6.8457 13.2246 7.25391 13.002 7.47656L7.06445 13.4141C6.8418 13.6367 6.43359 13.6367 6.21094 13.4141C5.98828 13.1914 5.98828 12.7832 6.21094 12.5605L12.1484 6.62305C12.3711 6.40039 12.7793 6.40039 13.002 6.62305ZM7.25 8.51562C6.73047 8.51562 6.35938 8.14453 6.35938 7.625C6.35938 7.14258 6.73047 6.73438 7.25 6.73438C7.73242 6.73438 8.14062 7.14258 8.14062 7.625C8.14062 8.14453 7.73242 8.51562 7.25 8.51562ZM12 13.2656C11.4805 13.2656 11.1094 12.8945 11.1094 12.375C11.1094 11.8926 11.4805 11.4844 12 11.4844C12.4824 11.4844 12.8906 11.8926 12.8906 12.375C12.8906 12.8945 12.4824 13.2656 12 13.2656Z" fill="#2A4459"/>
</svg>
