<svg width="20" height="17" viewBox="0 0 20 17" fill="none" xmlns="http://www.w3.org/2000/svg">
<path d="M2 1.125C1.4375 1.125 1 1.59375 1 2.125V11.125C1 11.6875 1.4375 12.125 2 12.125H2.15625C2.5625 10.9688 3.6875 10.125 5 10.125C6.28125 10.125 7.40625 10.9688 7.8125 12.125H12V2.125C12 1.59375 11.5312 1.125 11 1.125H2ZM2 13.125C0.875 13.125 0 12.25 0 11.125V2.125C0 1.03125 0.875 0.125 2 0.125H11C12.0938 0.125 13 1.03125 13 2.125V3.125H15.0312C15.4688 3.125 15.875 3.34375 16.1562 3.65625L18.625 6.53125C18.8438 6.8125 19 7.15625 19 7.5V12.125H19.5C19.75 12.125 20 12.375 20 12.625C20 12.9062 19.75 13.125 19.5 13.125H18C18 14.7812 16.6562 16.125 15 16.125C13.3438 16.125 12 14.7812 12 13.125H8C8 14.7812 6.65625 16.125 5 16.125C3.34375 16.125 2 14.7812 2 13.125ZM13 7.125H17.8125L15.4062 4.3125C15.3125 4.21875 15.1562 4.125 15.0312 4.125H13V7.125ZM13 8.125V10.9062C13.5312 10.4375 14.2188 10.125 15 10.125C16.2812 10.125 17.4062 10.9688 17.8125 12.125H18V8.125H13ZM7 13.125C7 12.4375 6.59375 11.7812 6 11.4062C5.375 11.0625 4.59375 11.0625 4 11.4062C3.375 11.7812 3 12.4375 3 13.125C3 13.8438 3.375 14.5 4 14.875C4.59375 15.2188 5.375 15.2188 6 14.875C6.59375 14.5 7 13.8438 7 13.125ZM15 15.125C15.6875 15.125 16.3438 14.75 16.7188 14.125C17.0625 13.5312 17.0625 12.75 16.7188 12.125C16.3438 11.5312 15.6875 11.125 15 11.125C14.2812 11.125 13.625 11.5312 13.25 12.125C12.9062 12.75 12.9062 13.5312 13.25 14.125C13.625 14.75 14.2812 15.125 15 15.125Z" fill="#2A4459"/>
</svg>
