<svg width="8" height="8" viewBox="0 0 8 8" fill="none" xmlns="http://www.w3.org/2000/svg">
<path d="M7.41211 1.31836L4.83398 3.89648L7.39062 6.45312C7.60547 6.64648 7.60547 6.96875 7.39062 7.16211C7.19727 7.37695 6.875 7.37695 6.68164 7.16211L4.10352 4.60547L1.54688 7.16211C1.35352 7.37695 1.03125 7.37695 0.837891 7.16211C0.623047 6.96875 0.623047 6.64648 0.837891 6.43164L3.39453 3.875L0.837891 1.31836C0.623047 1.125 0.623047 0.802734 0.837891 0.587891C1.03125 0.394531 1.35352 0.394531 1.56836 0.587891L4.125 3.16602L6.68164 0.609375C6.875 0.394531 7.19727 0.394531 7.41211 0.609375C7.60547 0.802734 7.60547 1.125 7.41211 1.31836Z" fill="#2A4459"/>
</svg>
