<svg width="16" height="17" viewBox="0 0 16 17" fill="none" xmlns="http://www.w3.org/2000/svg">
<path d="M1.8125 1.5C1.49609 1.5 1.25 1.78125 1.25 2.0625V5.4375C1.25 5.75391 1.49609 6 1.8125 6H5.1875C5.46875 6 5.75 5.75391 5.75 5.4375V2.0625C5.75 1.78125 5.46875 1.5 5.1875 1.5H1.8125ZM0.125 2.0625C0.125 1.14844 0.863281 0.375 1.8125 0.375H5.1875C6.10156 0.375 6.875 1.14844 6.875 2.0625V5.4375C6.875 6.38672 6.10156 7.125 5.1875 7.125H1.8125C0.863281 7.125 0.125 6.38672 0.125 5.4375V2.0625ZM1.8125 10.5C1.49609 10.5 1.25 10.7812 1.25 11.0625V14.4375C1.25 14.7539 1.49609 15 1.8125 15H5.1875C5.46875 15 5.75 14.7539 5.75 14.4375V11.0625C5.75 10.7812 5.46875 10.5 5.1875 10.5H1.8125ZM0.125 11.0625C0.125 10.1484 0.863281 9.375 1.8125 9.375H5.1875C6.10156 9.375 6.875 10.1484 6.875 11.0625V14.4375C6.875 15.3867 6.10156 16.125 5.1875 16.125H1.8125C0.863281 16.125 0.125 15.3867 0.125 14.4375V11.0625ZM14.1875 1.5H10.8125C10.4961 1.5 10.25 1.78125 10.25 2.0625V5.4375C10.25 5.75391 10.4961 6 10.8125 6H14.1875C14.4688 6 14.75 5.75391 14.75 5.4375V2.0625C14.75 1.78125 14.4688 1.5 14.1875 1.5ZM10.8125 0.375H14.1875C15.1016 0.375 15.875 1.14844 15.875 2.0625V5.4375C15.875 6.38672 15.1016 7.125 14.1875 7.125H10.8125C9.86328 7.125 9.125 6.38672 9.125 5.4375V2.0625C9.125 1.14844 9.86328 0.375 10.8125 0.375ZM10.8125 10.5C10.4961 10.5 10.25 10.7812 10.25 11.0625V14.4375C10.25 14.7539 10.4961 15 10.8125 15H14.1875C14.4688 15 14.75 14.7539 14.75 14.4375V11.0625C14.75 10.7812 14.4688 10.5 14.1875 10.5H10.8125ZM9.125 11.0625C9.125 10.1484 9.86328 9.375 10.8125 9.375H14.1875C15.1016 9.375 15.875 10.1484 15.875 11.0625V14.4375C15.875 15.3867 15.1016 16.125 14.1875 16.125H10.8125C9.86328 16.125 9.125 15.3867 9.125 14.4375V11.0625Z" fill="#2A4459"/>
</svg>
