<svg width="36" height="36" viewBox="0 0 36 36" fill="none" xmlns="http://www.w3.org/2000/svg">
<g clip-path="url(#clip0_50_1223)">
<path d="M16.8574 7.18555C16.6641 8.08789 15.9551 8.79688 15.1816 9.11914L15.1172 9.18359C14.2793 9.50586 13.3125 9.50586 12.5391 8.99023L11.1855 8.08789C11.1211 8.02344 11.0566 8.02344 10.9277 8.02344C10.3477 8.41016 9.83203 8.92578 9.31641 9.44141H9.25195C8.73633 9.95703 8.28516 10.5371 7.83398 11.1172C7.83398 11.2461 7.83398 11.3105 7.89844 11.375L8.80078 12.7285C9.31641 13.502 9.31641 14.4688 8.99414 15.2422V15.3711C8.67188 16.1445 7.96289 16.8535 6.99609 16.9824L5.44922 17.3047C5.38477 17.3691 5.25586 17.3691 5.19141 17.4336C5.0625 18.1426 5.0625 18.916 5.0625 19.625C5.0625 20.3984 5.0625 21.1719 5.19141 21.8809C5.25586 21.9453 5.38477 21.9453 5.44922 22.0098L6.99609 22.332C7.96289 22.4609 8.67188 23.1699 8.99414 23.9434V24.0723C9.38086 24.8457 9.31641 25.8125 8.80078 26.5859L7.89844 27.9395C7.83398 28.0039 7.83398 28.0684 7.83398 28.1973C8.67188 29.3574 9.76758 30.4531 10.9277 31.291C11.0566 31.291 11.1211 31.291 11.1855 31.2266L12.5391 30.3242C13.3125 29.8086 14.2793 29.8086 15.1172 30.1309H15.1816C15.9551 30.4531 16.6641 31.1621 16.8574 32.1289L17.1797 33.6758C17.1797 33.7402 17.1797 33.8691 17.2441 33.9336C18.0176 33.998 18.7266 34.0625 19.5 34.0625C20.209 34.0625 20.9824 33.998 21.6914 33.9336C21.7559 33.8691 21.7559 33.7402 21.8203 33.6758L22.1426 32.1289C22.3359 31.1621 22.9805 30.4531 23.7539 30.1309H23.8828C24.6562 29.7441 25.623 29.8086 26.3965 30.3242L27.75 31.2266C27.8145 31.291 27.8789 31.291 28.0078 31.291C29.168 30.4531 30.2637 29.3574 31.1016 28.1973C31.1016 28.0684 31.1016 28.0039 31.0371 27.9395L30.1348 26.5859C29.6191 25.8125 29.6191 24.8457 29.9414 24.0078V23.9434C30.3281 23.1699 30.9727 22.4609 31.9395 22.2676L33.4863 21.9453C33.5508 21.9453 33.6797 21.8809 33.7441 21.8164C33.8086 21.1074 33.873 20.3984 33.873 19.625C33.873 18.8516 33.8086 18.1426 33.7441 17.4336C33.6797 17.3691 33.5508 17.3047 33.4863 17.3047L31.9395 16.9824C30.9727 16.7891 30.2637 16.1445 29.9414 15.3711V15.2422C29.5547 14.4688 29.6191 13.502 30.1348 12.7285L31.0371 11.375C31.1016 11.3105 31.1016 11.1816 31.1016 11.1172C30.6504 10.5371 30.1992 9.95703 29.6836 9.44141H29.6191C29.1035 8.92578 28.5879 8.41016 28.0078 8.02344C27.8789 8.02344 27.8145 8.02344 27.75 8.08789L26.3965 8.99023C25.623 9.50586 24.6562 9.50586 23.8828 9.18359H23.7539C22.9805 8.79688 22.2715 8.15234 22.1426 7.18555L21.8203 5.63867C21.7559 5.50977 21.7559 5.44531 21.6914 5.38086C20.9824 5.25195 20.209 5.1875 19.5 5.1875C18.7266 5.1875 17.9531 5.25195 17.2441 5.38086C17.1797 5.44531 17.1797 5.50977 17.1152 5.63867L16.1484 5.44531L17.1152 5.63867L16.8574 7.18555ZM19.5 3.125C20.4023 3.125 21.3691 3.25391 22.2715 3.38281C22.4004 3.44727 22.5293 3.44727 22.5938 3.51172C23.2383 3.89844 23.6895 4.47852 23.8184 5.25195L24.1406 6.79883C24.1406 6.99219 24.2695 7.12109 24.5273 7.25L24.6562 7.31445C24.9141 7.37891 25.1074 7.37891 25.2363 7.25L26.5898 6.41211C27.2344 5.96094 27.9434 5.83203 28.6523 6.02539C28.7812 6.02539 28.9102 6.08984 28.9746 6.1543C29.748 6.73438 30.457 7.31445 31.1016 7.95898L31.166 8.02344C31.8105 8.66797 32.3906 9.37695 32.9707 10.1504C33.0352 10.2148 33.0996 10.3438 33.0996 10.4727C33.293 11.1816 33.1641 11.8906 32.7773 12.5352L31.875 13.8242C31.7461 14.0176 31.7461 14.2109 31.8105 14.4688L31.875 14.5332V14.5977C32.0039 14.791 32.1328 14.9199 32.3262 14.9844L33.873 15.3066C34.6465 15.4355 35.2266 15.8867 35.6133 16.4668C35.6777 16.5957 35.6777 16.7246 35.7422 16.8535C35.8711 17.7559 35.9355 18.6582 35.9355 19.625V19.6895C35.9355 20.5918 35.8711 21.5586 35.7422 22.4609C35.6777 22.5898 35.6777 22.7188 35.6133 22.7832C35.2266 23.4277 34.6465 23.8789 33.873 24.0078L33.6797 22.9766L33.873 24.0078L32.3262 24.3301C32.1328 24.3301 32.0039 24.459 31.875 24.7168L31.8105 24.8457C31.7461 25.1035 31.7461 25.2969 31.875 25.4258L32.7773 26.7793C33.1641 27.4238 33.293 28.1328 33.0996 28.8418C33.0996 28.9707 33.0352 29.0996 32.9707 29.1641C31.875 30.7109 30.5215 32.0645 28.9746 33.1602C28.9102 33.2246 28.7812 33.2891 28.6523 33.2891C27.9434 33.4824 27.2344 33.3535 26.5898 32.9023L25.3008 32.0645C25.1719 31.9355 24.9141 31.9355 24.6562 32L24.5918 32.0645C24.334 32.1289 24.2051 32.3223 24.1406 32.5156L23.8184 34.0625C23.6895 34.7715 23.2383 35.416 22.6582 35.8027C22.5293 35.8672 22.4004 35.8672 22.2715 35.9316C21.3691 36.0605 20.4668 36.125 19.5 36.125C18.5332 36.125 17.5664 36.0605 16.6641 35.9316C16.5352 35.8672 16.4062 35.8672 16.3418 35.8027C15.6973 35.416 15.2461 34.8359 15.1172 34.0625L14.7949 32.5156C14.7949 32.3223 14.666 32.1289 14.4082 32.0645L14.2793 32C14.0215 31.9355 13.8281 31.9355 13.6992 32.0645L12.3457 32.9023C11.7012 33.3535 10.9922 33.4824 10.2832 33.2891C10.1543 33.2891 10.0898 33.2246 9.96094 33.1602C8.41406 32.0645 7.06055 30.7109 5.96484 29.1641C5.90039 29.0352 5.83594 28.9707 5.83594 28.8418C5.64258 28.1328 5.77148 27.4238 6.22266 26.7793L7.06055 25.4902C7.18945 25.2969 7.18945 25.1035 7.125 24.8457L7.06055 24.7168C6.93164 24.5234 6.80273 24.3301 6.60938 24.3301L5.0625 24.0078C4.28906 23.8789 3.70898 23.4277 3.32227 22.7832C3.25781 22.7188 3.25781 22.5898 3.19336 22.4609C3.06445 21.5586 3 20.5918 3 19.625C3 18.7227 3.06445 17.7559 3.19336 16.8535C3.25781 16.7246 3.25781 16.5957 3.32227 16.5312C3.70898 15.8867 4.28906 15.4355 5.0625 15.3066L6.60938 14.9844C6.80273 14.9844 6.99609 14.791 7.06055 14.5977L7.125 14.4688C7.18945 14.2109 7.18945 14.0176 7.06055 13.8242L6.22266 12.5352C5.77148 11.8906 5.64258 11.1816 5.83594 10.4727C5.83594 10.3438 5.90039 10.2148 5.96484 10.1504C6.54492 9.37695 7.125 8.66797 7.76953 8.02344L7.83398 7.95898C8.47852 7.31445 9.1875 6.73438 9.96094 6.1543C10.0898 6.08984 10.1543 6.02539 10.2832 6.02539C10.9922 5.83203 11.7012 5.96094 12.3457 6.34766L13.6348 7.25C13.8281 7.37891 14.0215 7.37891 14.2793 7.31445L14.4082 7.25C14.6016 7.12109 14.7949 6.99219 14.7949 6.79883L15.1172 5.25195C15.2461 4.47852 15.6973 3.89844 16.3418 3.51172C16.4062 3.44727 16.5352 3.38281 16.6641 3.38281C17.5664 3.25391 18.5332 3.125 19.5 3.125ZM15.375 19.625C15.375 21.1074 16.1484 22.4609 17.4375 23.2344C18.6621 23.9434 20.2734 23.9434 21.5625 23.2344C22.7871 22.4609 23.625 21.1074 23.625 19.625C23.625 18.207 22.7871 16.8535 21.5625 16.0801C20.2734 15.3711 18.6621 15.3711 17.4375 16.0801C16.1484 16.8535 15.375 18.207 15.375 19.625ZM25.6875 19.625C25.6875 21.8809 24.4629 23.8789 22.5938 25.0391C20.6602 26.1348 18.2754 26.1348 16.4062 25.0391C14.4727 23.8789 13.3125 21.8809 13.3125 19.625C13.3125 17.4336 14.4727 15.4355 16.4062 14.2754C18.2754 13.1797 20.6602 13.1797 22.5938 14.2754C24.4629 15.4355 25.6875 17.4336 25.6875 19.625Z" fill="#2A4459"/>
</g>
<defs>
<clipPath id="clip0_50_1223">
<rect width="36" height="36" fill="white"/>
</clipPath>
</defs>
</svg>
