<svg width="15" height="13" viewBox="0 0 15 13" fill="none" xmlns="http://www.w3.org/2000/svg">
<path d="M13.8086 6.71484L10.3086 10.2148C10.0352 10.4883 9.625 10.4883 9.37891 10.2148C9.10547 9.96875 9.10547 9.55859 9.37891 9.28516L11.7578 6.90625H5.03125C4.64844 6.90625 4.375 6.63281 4.375 6.25C4.375 5.89453 4.64844 5.59375 5.03125 5.59375H11.7578L9.37891 3.21484C9.10547 2.96875 9.10547 2.55859 9.37891 2.28516C9.625 2.03906 10.0352 2.03906 10.3086 2.28516L13.8086 5.8125C14.0547 6.05859 14.0547 6.46875 13.8086 6.71484ZM4.59375 1.4375H2.40625C1.77734 1.4375 1.3125 1.92969 1.3125 2.53125V9.96875C1.3125 10.5977 1.77734 11.0625 2.40625 11.0625H4.59375C4.94922 11.0625 5.25 11.3633 5.25 11.7188C5.25 12.1016 4.94922 12.375 4.59375 12.375H2.40625C1.06641 12.375 0 11.3086 0 9.96875V2.53125C0 1.21875 1.06641 0.125 2.40625 0.125H4.59375C4.94922 0.125 5.25 0.425781 5.25 0.78125C5.25 1.16406 4.94922 1.4375 4.59375 1.4375Z" fill="#2A4459"/>
</svg>
