<svg width="15" height="19" viewBox="0 0 15 19" fill="none" xmlns="http://www.w3.org/2000/svg">
<path d="M10.625 5.375C10.625 4.24609 9.99414 3.2168 9.03125 2.61914C8.03516 2.05469 6.80664 2.05469 5.84375 2.61914C4.84766 3.2168 4.25 4.24609 4.25 5.375C4.25 6.53711 4.84766 7.56641 5.84375 8.16406C6.80664 8.72852 8.03516 8.72852 9.03125 8.16406C9.99414 7.56641 10.625 6.53711 10.625 5.375ZM3.1875 5.375C3.1875 3.88086 3.98438 2.48633 5.3125 1.72266C6.60742 0.958984 8.23438 0.958984 9.5625 1.72266C10.8574 2.48633 11.6875 3.88086 11.6875 5.375C11.6875 6.90234 10.8574 8.29688 9.5625 9.06055C8.23438 9.82422 6.60742 9.82422 5.3125 9.06055C3.98438 8.29688 3.1875 6.90234 3.1875 5.375ZM1.0625 17.0625H13.8125C13.7461 14.4395 11.5879 12.2812 8.93164 12.2812H5.91016C3.25391 12.2812 1.0957 14.4395 1.0625 17.0625ZM0 17.1621C0 13.875 2.62305 11.2188 5.91016 11.2188H8.93164C12.2188 11.2188 14.875 13.875 14.875 17.1621C14.875 17.6934 14.4102 18.125 13.8789 18.125H0.962891C0.431641 18.125 0 17.6934 0 17.1621Z" fill="#2A4459"/>
</svg>
